<svg width="402" height="80" viewBox="0 0 402 80" fill="none" xmlns="http://www.w3.org/2000/svg">
<path d="M2.9751 63.8062H399.692H401.667L400.722 65.5393L392.812 80.0001L390.759 78.8782L397.716 66.1583H2.9751V63.8062Z" fill="#FF6600"/>
<path fill-rule="evenodd" clip-rule="evenodd" d="M12.117 46.8613H21.1583L34.2593 6.24097H27.7747L18.2763 35.8048L9.42867 6.24097H0L12.117 46.8613Z" fill="white"/>
<path fill-rule="evenodd" clip-rule="evenodd" d="M64.1258 29.6618C64.1258 23.9672 62.7468 20.8336 60.0662 17.3673C57.3158 14.0326 52.5356 13.05 49.0648 13.05C48.8014 13.05 48.5379 13.05 48.2823 13.05V19.0695C48.414 19.0695 48.5457 19.0695 48.6774 19.0695C55.0303 19.0695 55.224 24.2999 55.2937 26.9228H48.2823V33.0042H64.1336V29.6618H64.1258ZM48.2745 47.7745C48.995 47.8364 49.7156 47.8364 50.4361 47.8364C56.2622 47.8364 61.3058 46.4592 64.1258 45.6778V38.6756C57.7729 40.9658 53.7752 41.0277 52.5356 41.0277C51.1566 41.0277 49.6536 40.8962 48.2745 40.5016V47.7745ZM48.2745 13.0422V19.0618C44.0832 19.2552 41.7899 22.4661 41.3328 26.915H48.2745V32.9965H41.5265C41.9836 37.3835 44.9354 39.6041 48.2745 40.517V47.7745C36.6843 46.8616 31.7027 38.9464 31.7027 30.5747C31.7027 20.5009 38.1176 13.3672 48.2745 13.0422Z" fill="white"/>
<path fill-rule="evenodd" clip-rule="evenodd" d="M98.385 14.4814C94.6507 13.4987 90.591 13.0422 86.7251 13.0422C79.5199 13.0422 75.9173 15.0075 73.3607 17.0346C68.1234 21.2205 67.5966 27.8899 67.5966 30.5128C67.5966 41.7627 75.5222 47.8442 87.0504 47.8442C88.0964 47.8442 93.2097 47.7823 98.385 46.467V39.7975C94.1936 41.2985 90.8545 41.3681 90.0022 41.3681C85.4855 41.3681 77.4901 39.4029 77.4901 29.4606C77.4901 19.6498 85.8728 19.0618 87.709 19.0618C88.5612 19.0618 92.8146 19.0618 98.385 21.1586V14.4814Z" fill="white"/>
<path fill-rule="evenodd" clip-rule="evenodd" d="M102.05 36.7255C102.05 40.7179 102.832 42.6755 104.932 44.7026C107.031 46.7994 111.285 47.8439 114.694 47.8439C115.22 47.8439 118.823 47.8439 124.192 46.2733V39.5342C122.945 40.1222 120.651 41.0352 117.049 41.0352C116.266 41.0352 113.772 40.9733 112.269 39.333C111.285 38.3504 111.223 37.3058 111.223 34.621V20.431H123.533V14.4115H111.223V6.24097H102.05V36.7255Z" fill="white"/>
<path fill-rule="evenodd" clip-rule="evenodd" d="M142.337 47.8442C150.526 47.8442 159.761 43.0703 159.761 30.4432C159.761 18.0173 150.719 13.0422 142.337 13.0422V19.0618C149.867 19.0618 149.867 28.153 149.867 30.4432C149.867 32.7953 149.867 41.8246 142.337 41.8246V47.8442ZM142.337 13.0422V19.0618C134.736 19.0618 134.736 28.153 134.736 30.4432C134.736 32.7953 134.736 41.8246 142.337 41.8246V47.8442C134.085 47.8442 124.912 43.0703 124.912 30.4432C124.912 18.0173 133.884 13.0422 142.337 13.0422Z" fill="white"/>
<path fill-rule="evenodd" clip-rule="evenodd" d="M163.162 46.8613H172.265V27.7581C175.806 22.1951 179.927 20.756 184.777 21.1506V27.4332H190.867V14.0865C189.1 13.7615 187.202 13.3669 184.576 13.3669C176.65 13.3669 173.636 18.0789 172.265 20.2376H171.94L172.265 14.3496H163.162V46.8613Z" fill="white"/>
<path d="M190.959 46.6446H198.079L202 36.5089H217.611L221.469 46.6446H232.168L216.89 6.81348H206.237L190.959 46.6446ZM204.363 30.2263L209.77 16.1213L215.178 30.2263H204.363Z" fill="#FF6600"/>
<path d="M245.06 14.5198H233.958V46.9077H245.06V27.1314C245.347 26.5898 245.695 26.056 246.098 25.5143C246.3 25.2435 246.501 24.9882 246.71 24.7484C246.912 24.5008 247.129 24.2609 247.361 24.0211C247.617 23.7812 247.88 23.5646 248.136 23.3557C248.391 23.1545 248.655 22.9765 248.91 22.8295C249.197 22.7135 249.484 22.6129 249.786 22.5278C250.073 22.4504 250.382 22.4117 250.7 22.4117C251.049 22.4117 251.359 22.4504 251.638 22.5433C251.909 22.6206 252.133 22.7444 252.312 22.8914C252.513 23.0384 252.676 23.2164 252.8 23.433C252.924 23.6419 253.032 23.8818 253.117 24.1526C253.203 24.3924 253.265 24.6633 253.311 24.9418C253.35 25.2203 253.381 25.4989 253.404 25.7697C253.404 26.0714 253.404 26.3654 253.404 26.6595C253.404 26.9612 253.404 27.2397 253.404 27.5028V46.9232H264.506V23.8973C264.506 23.1777 264.46 22.4891 264.374 21.8237C264.281 21.166 264.134 20.5161 263.933 19.8894C263.762 19.2936 263.53 18.7211 263.251 18.195C262.964 17.6533 262.639 17.1659 262.267 16.7171C261.895 16.2374 261.461 15.8274 260.981 15.4792C260.493 15.131 259.966 14.8293 259.393 14.5662C258.788 14.2954 258.153 14.102 257.471 13.9782C256.79 13.8466 256.054 13.7925 255.248 13.7925C254.496 13.7925 253.784 13.8621 253.079 14.0091C252.389 14.1484 251.707 14.3573 251.049 14.6281C250.413 14.9299 249.801 15.278 249.22 15.6649C248.632 16.0672 248.089 16.5082 247.601 17.0189C247.082 17.5296 246.617 18.0712 246.183 18.6747C245.765 19.2704 245.385 19.9204 245.068 20.609H244.378L245.06 14.5198Z" fill="#FF6600"/>
<path d="M284.859 37.886C284.572 38.2729 284.255 38.621 283.898 38.9228C283.55 39.2323 283.162 39.5031 282.728 39.7429C282.325 39.9828 281.907 40.1607 281.473 40.2845C281.032 40.4006 280.574 40.4625 280.086 40.4625C279.598 40.4625 279.157 40.3696 278.754 40.2072C278.359 40.0447 278.018 39.8126 277.731 39.5108C277.445 39.2091 277.212 38.8609 277.057 38.474C276.894 38.0794 276.809 37.6307 276.809 37.12C276.809 36.6403 276.863 36.2148 276.972 35.8279C277.088 35.4488 277.243 35.1238 277.445 34.853C277.646 34.5822 277.878 34.3424 278.134 34.1489C278.39 33.94 278.684 33.7775 278.994 33.6615C279.312 33.5145 279.629 33.4061 279.947 33.321C280.265 33.2437 280.582 33.1818 280.9 33.1199C281.249 33.0889 281.558 33.0734 281.853 33.0734C282.139 33.0657 282.403 33.0657 282.628 33.0657H284.874V37.886H284.859ZM298.153 40.4547H297.061C296.774 40.4547 296.511 40.4083 296.302 40.3155C296.085 40.2226 295.907 40.0988 295.791 39.9209C295.643 39.7429 295.543 39.5418 295.473 39.3329C295.403 39.1239 295.357 38.9073 295.326 38.6674C295.295 38.4276 295.279 38.1877 295.279 37.9479C295.271 37.708 295.271 37.4682 295.271 37.2283V24.6167C295.271 23.99 295.24 23.3787 295.186 22.783C295.132 22.1949 295.039 21.6301 294.931 21.0885C294.783 20.5237 294.613 19.9898 294.404 19.5024C294.187 19.015 293.923 18.543 293.606 18.0942C293.288 17.6455 292.924 17.2277 292.513 16.8408C292.103 16.4539 291.622 16.0903 291.072 15.7653C290.522 15.4636 289.91 15.185 289.221 14.9374C288.531 14.6899 287.764 14.481 286.927 14.3262C285.262 13.9703 283.247 13.7923 280.884 13.7923C279.908 13.7923 278.917 13.8233 277.925 13.8929C276.925 13.9703 275.942 14.0941 274.965 14.272C273.989 14.4191 273.005 14.628 272.037 14.891C271.061 15.1618 270.1 15.4713 269.147 15.8272V22.9996C269.635 22.6979 270.154 22.4193 270.689 22.1563C271.239 21.9009 271.789 21.6611 272.37 21.4522C272.92 21.2433 273.493 21.0653 274.074 20.9106C274.655 20.7636 275.244 20.6398 275.818 20.5547C276.422 20.4618 277.018 20.3922 277.592 20.338C278.173 20.2916 278.754 20.2606 279.327 20.2606C280.249 20.2606 281.055 20.3535 281.744 20.516C282.434 20.6939 283.007 20.9415 283.472 21.2742C283.929 21.6301 284.278 22.0789 284.51 22.6282C284.743 23.1698 284.859 23.812 284.859 24.5625V26.5974H279.164C278.529 26.5974 277.785 26.6593 276.918 26.7754C276.484 26.8373 276.042 26.9224 275.585 27.0462C275.136 27.1622 274.671 27.317 274.214 27.4949C273.726 27.6419 273.245 27.8199 272.788 28.0443C272.316 28.2532 271.859 28.5085 271.402 28.8103C270.944 29.0811 270.503 29.3905 270.069 29.7465C269.651 30.0946 269.248 30.4815 268.868 30.8993C268.496 31.3171 268.155 31.7736 267.869 32.2843C267.574 32.7794 267.311 33.321 267.078 33.8859C266.621 35.0774 266.389 36.4546 266.389 38.0098C266.389 38.7603 266.459 39.4644 266.598 40.122C266.73 40.7874 266.931 41.4142 267.195 42.0177C267.45 42.6134 267.768 43.1628 268.132 43.6734C268.504 44.1841 268.915 44.6483 269.379 45.0661C269.837 45.4839 270.332 45.8398 270.859 46.1493C271.378 46.4666 271.944 46.7374 272.548 46.9772C273.152 47.1861 273.772 47.3486 274.408 47.4647C275.051 47.573 275.709 47.6349 276.399 47.6349C277.204 47.6349 277.956 47.5575 278.661 47.4028C279.374 47.2557 280.048 47.0314 280.714 46.7374C281.977 46.1416 283.131 45.2441 284.169 44.0448H284.859C285.115 44.5555 285.409 45.0042 285.734 45.3911C286.052 45.7779 286.416 46.1106 286.819 46.3737C287.222 46.6136 287.656 46.8225 288.105 46.9927C288.562 47.1706 289.035 47.3022 289.523 47.395C290.011 47.4879 290.499 47.542 291.003 47.5807C291.491 47.6117 292.002 47.6271 292.521 47.6271C293.009 47.6271 293.49 47.6039 293.947 47.5807C294.419 47.5498 294.876 47.5111 295.333 47.4492C295.822 47.3873 296.302 47.3099 296.759 47.2171C297.232 47.1242 297.689 47.0314 298.146 46.9076V40.4547H298.153ZM276.918 9.43629H283.534L291.816 0.83252H283.185L276.918 9.43629Z" fill="#FF6600"/>
<path d="M311.177 0.83252H300.075V46.9076H311.177V0.83252Z" fill="#FF6600"/>
<path d="M315.438 46.9076H326.54V14.5196H315.438V46.9076ZM315.438 9.43629H326.54V0.83252H315.438V9.43629Z" fill="#FF6600"/>
<path d="M329.848 45.9561C330.91 46.2269 331.987 46.4745 333.079 46.6912C334.164 46.9078 335.256 47.0858 336.348 47.2096C337.472 47.3566 338.58 47.4649 339.672 47.5268C340.772 47.5964 341.865 47.6274 342.965 47.6274C344.142 47.6274 345.235 47.5655 346.242 47.4572C347.249 47.3411 348.171 47.1786 349 46.9697C350.728 46.49 352.161 45.8942 353.315 45.1747C354.47 44.401 355.384 43.5576 356.073 42.6678C356.422 42.1881 356.717 41.7007 356.972 41.2055C357.22 40.7103 357.422 40.2229 357.569 39.7432C357.739 39.2325 357.855 38.7296 357.933 38.2267C358.003 37.716 358.026 37.2286 358.026 36.7489C358.026 36.0912 357.972 35.4722 357.84 34.9074C357.724 34.3426 357.53 33.8242 357.274 33.3445C357.042 32.8648 356.779 32.4083 356.461 31.9673C356.143 31.5262 355.779 31.1317 355.376 30.7757C354.973 30.4198 354.539 30.0871 354.082 29.7776C353.625 29.4759 353.129 29.1896 352.618 28.9188C352.13 28.648 351.626 28.4004 351.115 28.1606C350.596 27.9284 350.061 27.7195 349.511 27.5416C348.961 27.3327 348.434 27.1315 347.923 26.9536C347.404 26.7679 346.9 26.5822 346.405 26.4042C345.886 26.2263 345.397 26.056 344.94 25.8936C344.483 25.7311 344.049 25.5686 343.647 25.3829C343.244 25.205 342.887 25.027 342.57 24.8336C342.252 24.6556 341.973 24.4544 341.748 24.2455C341.516 24.0676 341.338 23.8587 341.198 23.6266C341.067 23.3867 340.997 23.1391 340.997 22.8683C340.997 22.5666 341.051 22.3035 341.16 22.0636C341.253 21.8238 341.4 21.6149 341.57 21.4369C341.741 21.259 341.942 21.0965 342.167 20.9572C342.399 20.818 342.639 20.7174 342.895 20.6555C343.182 20.5626 343.461 20.4853 343.732 20.4234C344.003 20.3615 344.282 20.3228 344.569 20.2918C344.855 20.2609 345.126 20.2454 345.382 20.2454C345.63 20.2377 345.862 20.2377 346.064 20.2377C346.552 20.2377 347.063 20.2686 347.582 20.315C348.101 20.3769 348.628 20.4466 349.17 20.5317C349.69 20.6477 350.216 20.7715 350.751 20.9031C351.286 21.0423 351.812 21.1893 352.331 21.3673C352.882 21.5143 353.393 21.6768 353.889 21.8547C354.377 22.025 354.842 22.2029 355.268 22.3809V15.0305C354.408 14.8216 353.532 14.6437 352.641 14.4812C351.758 14.3342 350.867 14.1949 349.976 14.0711C349.085 13.9783 348.194 13.9086 347.303 13.8545C346.412 13.808 345.521 13.7771 344.63 13.7771C343.391 13.7771 342.244 13.839 341.191 13.9473C340.129 14.0634 339.169 14.2259 338.301 14.4348C337.441 14.6746 336.651 14.9299 335.93 15.224C335.217 15.5102 334.59 15.8429 334.04 16.2298C333.49 16.5857 333.002 16.9648 332.583 17.3517C332.149 17.7463 331.793 18.1718 331.506 18.6129C331.189 19.0616 330.933 19.5104 330.724 19.9591C330.522 20.4079 330.36 20.8566 330.243 21.3054C330.127 21.7851 330.042 22.2339 329.988 22.6594C329.934 23.0772 329.903 23.4873 329.903 23.8742C329.903 24.6479 329.988 25.3674 330.15 26.0251C330.305 26.6828 330.53 27.2785 330.825 27.8201C331.111 28.3849 331.46 28.9033 331.847 29.383C332.235 29.8627 332.661 30.296 333.126 30.6906C333.614 31.1084 334.133 31.4876 334.667 31.8125C335.217 32.153 335.767 32.447 336.348 32.7178C336.922 33.0195 337.503 33.2826 338.076 33.5379C338.649 33.7933 339.231 34.0331 339.804 34.273C340.377 34.4819 340.935 34.6908 341.485 34.8997C342.02 35.1086 342.539 35.3175 343.027 35.5264C343.515 35.7353 343.949 35.9442 344.328 36.1608C344.7 36.3697 345.041 36.6019 345.328 36.8417C345.645 37.0816 345.878 37.3369 346.025 37.6077C346.172 37.8862 346.242 38.188 346.242 38.5129C346.242 39.1087 346.072 39.5884 345.723 39.9443C345.576 40.1223 345.405 40.2693 345.204 40.4008C345.002 40.5169 344.77 40.6329 344.514 40.7181C343.995 40.896 343.476 41.0198 342.965 41.074C342.678 41.1049 342.415 41.1204 342.175 41.1204C341.927 41.1281 341.694 41.1281 341.462 41.1281C340.137 41.1281 338.812 41.0121 337.495 40.7722C336.86 40.6562 336.217 40.5169 335.566 40.3621C334.915 40.1997 334.272 40.0217 333.637 39.8128C332.374 39.4569 331.103 39.0391 329.841 38.5594V45.9561H329.848Z" fill="#FF6600"/>
<path d="M360.768 46.9076H371.87V14.5196H360.768V46.9076ZM360.768 9.43629H371.87V0.83252H360.768V9.43629Z" fill="#FF6600"/>
<path d="M373.583 45.9561C374.644 46.2269 375.721 46.4745 376.814 46.6912C377.898 46.9078 378.991 47.0858 380.083 47.2096C381.207 47.3566 382.314 47.4649 383.407 47.5268C384.507 47.5964 385.599 47.6274 386.7 47.6274C387.877 47.6274 388.97 47.5655 389.977 47.4572C390.984 47.3411 391.906 47.1786 392.735 46.9697C394.462 46.49 395.896 45.8942 397.05 45.1747C398.205 44.401 399.119 43.5576 399.808 42.6678C400.157 42.1881 400.451 41.7007 400.707 41.2055C400.955 40.7103 401.156 40.2229 401.303 39.7432C401.474 39.2325 401.59 38.7296 401.668 38.2267C401.737 37.716 401.761 37.2286 401.761 36.7489C401.761 36.0912 401.706 35.4722 401.575 34.9074C401.458 34.3426 401.265 33.8242 401.009 33.3445C400.777 32.8648 400.513 32.4083 400.196 31.9673C399.878 31.5262 399.514 31.1317 399.111 30.7757C398.708 30.4198 398.274 30.0871 397.817 29.7776C397.36 29.4759 396.864 29.1896 396.353 28.9188C395.865 28.648 395.369 28.4004 394.85 28.1606C394.331 27.9284 393.796 27.7195 393.246 27.5416C392.696 27.3327 392.169 27.1315 391.658 26.9536C391.139 26.7679 390.635 26.5822 390.139 26.4042C389.62 26.2263 389.132 26.056 388.675 25.8936C388.218 25.7311 387.784 25.5686 387.381 25.3829C386.978 25.205 386.622 25.027 386.304 24.8336C385.987 24.6556 385.708 24.4544 385.483 24.2455C385.251 24.0676 385.073 23.8587 384.933 23.6266C384.801 23.3867 384.732 23.1391 384.732 22.8683C384.732 22.5666 384.786 22.3035 384.894 22.0636C384.987 21.8238 385.135 21.6149 385.305 21.4369C385.475 21.259 385.677 21.0965 385.902 20.9572C386.134 20.818 386.374 20.7174 386.63 20.6555C386.916 20.5626 387.195 20.4853 387.467 20.4234C387.738 20.3615 388.017 20.3228 388.303 20.2918C388.59 20.2609 388.861 20.2454 389.117 20.2454C389.365 20.2377 389.597 20.2377 389.799 20.2377C390.287 20.2377 390.798 20.2686 391.317 20.315C391.836 20.3769 392.363 20.4466 392.905 20.5317C393.424 20.6477 393.951 20.7715 394.486 20.9031C395.02 21.0423 395.547 21.1893 396.066 21.3673C396.616 21.5143 397.128 21.6768 397.623 21.8547C398.112 22.025 398.576 22.2029 399.003 22.3809V15.0305C398.143 14.8216 397.267 14.6437 396.376 14.4812C395.493 14.3342 394.602 14.1949 393.711 14.0711C392.82 13.9783 391.929 13.9086 391.038 13.8545C390.147 13.808 389.256 13.7771 388.365 13.7771C387.126 13.7771 385.979 13.839 384.925 13.9473C383.864 14.0634 382.903 14.2259 382.036 14.4348C381.176 14.6746 380.385 14.9299 379.665 15.224C378.952 15.5102 378.324 15.8429 377.774 16.2298C377.224 16.5857 376.736 16.9648 376.318 17.3517C375.884 17.7463 375.535 18.1718 375.241 18.6129C374.923 19.0616 374.668 19.5104 374.458 19.9591C374.257 20.4079 374.094 20.8566 373.978 21.3054C373.862 21.7851 373.777 22.2339 373.722 22.6594C373.668 23.0772 373.637 23.4873 373.637 23.8742C373.637 24.6479 373.722 25.3674 373.885 26.0251C374.04 26.6828 374.265 27.2785 374.559 27.8201C374.846 28.3849 375.195 28.9033 375.582 29.383C375.969 29.8627 376.395 30.296 376.86 30.6906C377.348 31.1084 377.867 31.4876 378.402 31.8125C378.952 32.153 379.502 32.447 380.083 32.7178C380.656 33.0195 381.238 33.2826 381.811 33.5379C382.384 33.7933 382.965 34.0331 383.539 34.273C384.112 34.4819 384.67 34.6908 385.22 34.8997C385.754 35.1086 386.273 35.3175 386.761 35.5264C387.25 35.7353 387.683 35.9442 388.063 36.1608C388.435 36.3697 388.776 36.6019 389.062 36.8417C389.38 37.0816 389.613 37.3369 389.76 37.6077C389.907 37.8862 389.977 38.188 389.977 38.5129C389.977 39.1087 389.806 39.5884 389.458 39.9443C389.31 40.1223 389.14 40.2693 388.939 40.4008C388.737 40.5169 388.505 40.6329 388.249 40.7181C387.73 40.896 387.211 41.0198 386.692 41.074C386.405 41.1049 386.142 41.1204 385.902 41.1204C385.654 41.1281 385.421 41.1281 385.189 41.1281C383.864 41.1281 382.539 41.0121 381.222 40.7722C380.587 40.6562 379.944 40.5169 379.293 40.3621C378.642 40.1997 377.999 40.0217 377.364 39.8128C376.101 39.4569 374.83 39.0391 373.568 38.5594V45.9561H373.583Z" fill="#FF6600"/>
</svg>
